<?xml version="1.0" encoding="UTF-8"?>
<!DOCTYPE svg PUBLIC "-//W3C//DTD SVG 1.1//EN" "http://www.w3.org/Graphics/SVG/1.1/DTD/svg11.dtd">
<!-- Creator: CorelDRAW -->
<svg xmlns="http://www.w3.org/2000/svg" xml:space="preserve" width="68.3155mm" height="68.3155mm" version="1.1" style="shape-rendering:geometricPrecision; text-rendering:geometricPrecision; image-rendering:optimizeQuality; fill-rule:evenodd; clip-rule:evenodd"
viewBox="0 0 2998.95 2998.95"
 xmlns:xlink="http://www.w3.org/1999/xlink"
 xmlns:xodm="http://www.corel.com/coreldraw/odm/2003">
 <defs>
  <style type="text/css">
   <![CDATA[
    .fil0 {fill:url(#id0)}
   ]]>
  </style>
  <linearGradient id="id0" gradientUnits="userSpaceOnUse" x1="1522.5" y1="3024.06" x2="1499.47" y2="0">
   <stop offset="0" style="stop-opacity:1; stop-color:#313563"/>
   <stop offset="1" style="stop-opacity:1; stop-color:#325BA5"/>
  </linearGradient>
 </defs>
 <g id="Слой_x0020_1">
  <metadata id="CorelCorpID_0Corel-Layer"/>
  <path class="fil0" d="M1499.48 0c828.13,0 1499.47,671.34 1499.47,1499.48 0,828.13 -671.34,1499.47 -1499.47,1499.47 -828.14,0 -1499.48,-671.34 -1499.48,-1499.47 0,-828.14 671.34,-1499.48 1499.48,-1499.48zm0 216.06c708.81,0 1283.42,574.61 1283.42,1283.42 0,708.81 -574.61,1283.42 -1283.42,1283.42 -708.82,0 -1283.42,-574.61 -1283.42,-1283.42 0,-708.82 574.61,-1283.42 1283.42,-1283.42zm-187.55 967.08c0,-25.09 20.33,-45.42 45.42,-45.42 25.09,0 45.44,20.33 45.44,45.42 0,25.09 -20.35,45.44 -45.44,45.44 -25.09,0 -45.42,-20.35 -45.42,-45.44zm-184.32 175.86c0,-25.09 20.33,-45.44 45.42,-45.44 25.09,0 45.44,20.35 45.44,45.44 0,25.09 -20.35,45.42 -45.44,45.42 -25.09,0 -45.42,-20.33 -45.42,-45.42zm184.32 181.38c0,-25.09 20.33,-45.44 45.42,-45.44 25.09,0 45.44,20.35 45.44,45.44 0,25.09 -20.35,45.44 -45.44,45.44 -25.09,0 -45.42,-20.35 -45.42,-45.44zm-446.16 27.27l375.07 0c12.98,0 25.18,6.87 31.31,18.32 16.28,30.4 48.3,51.09 85.21,51.09 59.76,0 106.85,-54.2 94.79,-116.12 -7.4,-38.02 -38.25,-68.49 -76.33,-75.54 -44.1,-8.17 -84.09,13.66 -103.22,48.55 -6.41,11.68 -18.44,19.16 -31.78,19.16l-375.05 0 0 -126.83 190.74 0c12.99,0 25.18,6.87 31.31,18.32 16.28,30.4 48.32,51.09 85.21,51.09 59.76,0 106.86,-54.2 94.79,-116.13 -7.41,-38 -38.25,-68.49 -76.32,-75.53 -44.1,-8.16 -84.09,13.64 -103.23,48.53 -6.4,11.69 -18.45,19.16 -31.78,19.16l-190.73 0 0 -121.29 375.07 0c12.98,0 25.18,6.87 31.31,18.32 16.28,30.4 48.3,51.09 85.21,51.09 59.76,0 106.85,-54.22 94.79,-116.13 -7.4,-38.02 -38.25,-68.49 -76.33,-75.54 -44.1,-8.16 -84.09,13.66 -103.22,48.55 -6.41,11.69 -18.44,19.16 -31.78,19.16l-375.05 0 0 -175.16 1267.41 0 0 762.12 -1267.41 0 0 -175.17zm1416.53 256.96l0 -925.72c0,-37.17 -30.14,-67.31 -67.31,-67.31l-1431.02 0c-37.17,0 -67.31,30.14 -67.31,67.31l0 925.72c0,37.17 30.14,67.31 67.31,67.31l557.08 0c37.17,0 67.31,30.14 67.31,67.31 0,37.16 -30.14,67.3 -67.31,67.3l-135.65 0c-77.77,0 -140.82,63.05 -140.82,140.84l869.8 0c0,-77.79 -63.05,-140.84 -140.84,-140.84l-135.65 0c-37.16,0 -67.3,-30.14 -67.3,-67.3 0,-37.17 30.14,-67.31 67.3,-67.31l557.09 0c37.17,0 67.31,-30.14 67.31,-67.31z"/>
 </g>
</svg>
