<?xml version="1.0" encoding="UTF-8"?>
<!DOCTYPE svg PUBLIC "-//W3C//DTD SVG 1.1//EN" "http://www.w3.org/Graphics/SVG/1.1/DTD/svg11.dtd">
<!-- Creator: CorelDRAW -->
<svg xmlns="http://www.w3.org/2000/svg" xml:space="preserve" width="3.6286mm" height="3.6286mm" version="1.1" style="shape-rendering:geometricPrecision; text-rendering:geometricPrecision; image-rendering:optimizeQuality; fill-rule:evenodd; clip-rule:evenodd"
viewBox="0 0 16.04 16.04"
 xmlns:xlink="http://www.w3.org/1999/xlink"
 xmlns:xodm="http://www.corel.com/coreldraw/odm/2003">
 <defs>
  <style type="text/css">
   <![CDATA[
    .fil0 {fill:#FEFEFE;fill-rule:nonzero}
   ]]>
  </style>
 </defs>
 <g id="Слой_x0020_1">
  <metadata id="CorelCorpID_0Corel-Layer"/>
  <path class="fil0" d="M13.03 0l-10.03 0c-1.66,0 -3.01,1.35 -3.01,3.01l0 10.03c0,1.66 1.35,3.01 3.01,3.01l5.56 0 0 -6.21 -2.09 0 0 -2.42 2.09 0 0 -1.79c0,-2.07 1.27,-3.2 3.12,-3.2 0.88,0 1.64,0.06 1.86,0.09l0 2.16 -1.27 0.01c-1.01,0 -1.2,0.47 -1.2,1.17l0 1.55 2.39 0 -0.31 2.42 -2.08 0 0 6.21 1.96 0c1.66,0 3.01,-1.35 3.01,-3.01l0 -10.03c0,-1.66 -1.35,-3.01 -3.01,-3.01z"/>
 </g>
</svg>
