<?xml version="1.0" encoding="UTF-8"?>
<!DOCTYPE svg PUBLIC "-//W3C//DTD SVG 1.1//EN" "http://www.w3.org/Graphics/SVG/1.1/DTD/svg11.dtd">
<!-- Creator: CorelDRAW -->
<svg xmlns="http://www.w3.org/2000/svg" xml:space="preserve" width="3.629mm" height="3.629mm" version="1.1" style="shape-rendering:geometricPrecision; text-rendering:geometricPrecision; image-rendering:optimizeQuality; fill-rule:evenodd; clip-rule:evenodd"
viewBox="0 0 18.95 18.95"
 xmlns:xlink="http://www.w3.org/1999/xlink"
 xmlns:xodm="http://www.corel.com/coreldraw/odm/2003">
 <defs>
  <style type="text/css">
   <![CDATA[
    .fil0 {fill:#FEFEFE;fill-rule:nonzero}
   ]]>
  </style>
 </defs>
 <g id="Слой_x0020_1">
  <metadata id="CorelCorpID_0Corel-Layer"/>
  <path class="fil0" d="M12.63 9.48c0,1.74 -1.42,3.16 -3.16,3.16 -1.74,0 -3.16,-1.42 -3.16,-3.16 0,-1.74 1.42,-3.16 3.16,-3.16 1.74,0 3.16,1.42 3.16,3.16zm1.7 0c0,-2.69 -2.17,-4.86 -4.86,-4.86 -2.69,0 -4.86,2.17 -4.86,4.86 0,2.69 2.17,4.86 4.86,4.86 2.69,0 4.86,-2.17 4.86,-4.86zm1.33 -5.06c0,-0.63 -0.51,-1.13 -1.13,-1.13 -0.63,0 -1.14,0.51 -1.14,1.13 0,0.63 0.51,1.14 1.14,1.14 0.63,0 1.13,-0.51 1.13,-1.14zm-6.19 -2.71c1.38,0 4.34,-0.11 5.59,0.38 0.43,0.17 0.75,0.38 1.09,0.72 0.33,0.33 0.54,0.65 0.72,1.09 0.49,1.25 0.38,4.21 0.38,5.59 0,1.38 0.11,4.34 -0.38,5.59 -0.17,0.43 -0.38,0.75 -0.72,1.09 -0.33,0.33 -0.65,0.54 -1.09,0.72 -1.25,0.49 -4.21,0.38 -5.59,0.38 -1.38,0 -4.34,0.11 -5.59,-0.38 -0.43,-0.17 -0.75,-0.38 -1.09,-0.72 -0.33,-0.33 -0.54,-0.65 -0.72,-1.09 -0.49,-1.25 -0.38,-4.21 -0.38,-5.59 0,-1.38 -0.11,-4.34 0.38,-5.59 0.17,-0.43 0.38,-0.75 0.72,-1.09 0.33,-0.33 0.65,-0.54 1.09,-0.72 1.25,-0.49 4.21,-0.38 5.59,-0.38zm9.48 7.77c0,-1.31 0.01,-2.6 -0.06,-3.91 -0.07,-1.52 -0.42,-2.86 -1.53,-3.97 -1.11,-1.11 -2.46,-1.46 -3.97,-1.53 -1.31,-0.07 -2.6,-0.06 -3.91,-0.06 -1.31,0 -2.6,-0.01 -3.91,0.06 -1.52,0.07 -2.86,0.42 -3.97,1.53 -1.11,1.11 -1.46,2.46 -1.53,3.97 -0.07,1.31 -0.06,2.6 -0.06,3.91 0,1.31 -0.01,2.6 0.06,3.91 0.07,1.52 0.42,2.86 1.53,3.97 1.11,1.11 2.46,1.46 3.97,1.53 1.31,0.07 2.6,0.06 3.91,0.06 1.31,0 2.6,0.01 3.91,-0.06 1.52,-0.07 2.86,-0.42 3.97,-1.53 1.11,-1.11 1.46,-2.46 1.53,-3.97 0.07,-1.31 0.06,-2.6 0.06,-3.91z"/>
 </g>
</svg>
