<?xml version="1.0" encoding="UTF-8"?>
<!DOCTYPE svg PUBLIC "-//W3C//DTD SVG 1.1//EN" "http://www.w3.org/Graphics/SVG/1.1/DTD/svg11.dtd">
<!-- Creator: CorelDRAW -->
<svg xmlns="http://www.w3.org/2000/svg" xml:space="preserve" width="264.583mm" height="176.389mm" version="1.1" style="shape-rendering:geometricPrecision; text-rendering:geometricPrecision; image-rendering:optimizeQuality; fill-rule:evenodd; clip-rule:evenodd"
viewBox="0 0 26458.32 17638.88"
 xmlns:xlink="http://www.w3.org/1999/xlink"
 xmlns:xodm="http://www.corel.com/coreldraw/odm/2003">
 <defs>
  <style type="text/css">
   <![CDATA[
    .fil1 {fill:#FEFEFE}
    .fil2 {fill:url(#id0)}
    .fil0 {fill:url(#id1)}
   ]]>
  </style>
  <linearGradient id="id0" gradientUnits="userSpaceOnUse" x1="13806.47" y1="7020.81" x2="13806.47" y2="9980.64">
   <stop offset="0" style="stop-opacity:1; stop-color:#325BA5"/>
   <stop offset="1" style="stop-opacity:1; stop-color:#313360"/>
  </linearGradient>
  <linearGradient id="id1" gradientUnits="userSpaceOnUse" x1="13858.94" y1="11826.5" x2="13806.49" y2="4937.76">
   <stop offset="0" style="stop-opacity:1; stop-color:#313563"/>
   <stop offset="1" style="stop-opacity:1; stop-color:#325BA5"/>
  </linearGradient>
 </defs>
 <g id="Слой_x0020_1">
  <metadata id="CorelCorpID_0Corel-Layer"/>
  <g id="_1569302052480">
   <path class="fil0" d="M13806.49 4937.76c1886.47,0 3415.77,1529.3 3415.77,3415.78 0,1886.47 -1529.3,3415.77 -3415.77,3415.77 -1886.48,0 -3415.78,-1529.3 -3415.78,-3415.77 0,-1886.48 1529.3,-3415.78 3415.78,-3415.78z"/>
   <path class="fil1" d="M13806.49 5429.93c1614.66,0 2923.6,1308.94 2923.6,2923.61 0,1614.66 -1308.94,2923.6 -2923.6,2923.6 -1614.67,0 -2923.61,-1308.94 -2923.61,-2923.6 0,-1614.67 1308.94,-2923.61 2923.61,-2923.61z"/>
   <path class="fil2" d="M13379.26 7632.92c0,-57.15 46.32,-103.47 103.47,-103.47 57.15,0 103.5,46.32 103.5,103.47 0,57.15 -46.35,103.5 -103.5,103.5 -57.15,0 -103.47,-46.35 -103.47,-103.5zm-419.88 400.61c0,-57.15 46.32,-103.5 103.47,-103.5 57.15,0 103.51,46.35 103.51,103.5 0,57.15 -46.36,103.47 -103.51,103.47 -57.15,0 -103.47,-46.32 -103.47,-103.47zm419.88 413.17c0,-57.15 46.32,-103.5 103.47,-103.5 57.15,0 103.5,46.35 103.5,103.5 0,57.15 -46.35,103.51 -103.5,103.51 -57.15,0 -103.47,-46.36 -103.47,-103.51zm-1016.35 62.13l854.39 0c29.56,0 57.36,15.66 71.33,41.73 37.08,69.25 110.03,116.38 194.1,116.38 136.13,0 243.41,-123.47 215.93,-264.51 -16.86,-86.61 -87.13,-156.03 -173.88,-172.08 -100.47,-18.6 -191.56,31.11 -235.13,110.59 -14.6,26.6 -42.01,43.64 -72.39,43.64l-854.35 0 0 -288.92 434.51 0c29.6,0 57.36,15.66 71.33,41.73 37.08,69.25 110.07,116.38 194.1,116.38 136.14,0 243.42,-123.47 215.94,-264.55 -16.87,-86.57 -87.14,-156.03 -173.85,-172.05 -100.47,-18.59 -191.56,31.08 -235.16,110.56 -14.57,26.64 -42.02,43.64 -72.39,43.64l-434.48 0 0 -276.29 854.39 0c29.56,0 57.36,15.66 71.33,41.73 37.08,69.25 110.03,116.38 194.1,116.38 136.13,0 243.41,-123.51 215.93,-264.55 -16.86,-86.6 -87.13,-156.03 -173.88,-172.08 -100.47,-18.59 -191.56,31.11 -235.13,110.59 -14.6,26.64 -42.01,43.64 -72.39,43.64l-854.35 0 0 -399.02 2887.13 0 0 1736.09 -2887.13 0 0 -399.03zm3226.82 585.36l0 -2108.76c0,-84.67 -68.65,-153.32 -153.32,-153.32l-3259.84 0c-84.67,0 -153.32,68.65 -153.32,153.32l0 2108.76c0,84.67 68.65,153.32 153.32,153.32l1269.01 0c84.67,0 153.32,68.65 153.32,153.32 0,84.66 -68.65,153.31 -153.32,153.31l-309 0c-177.16,0 -320.78,143.62 -320.78,320.82l1981.38 0c0,-177.2 -143.62,-320.82 -320.82,-320.82l-309 0c-84.66,0 -153.31,-68.65 -153.31,-153.31 0,-84.67 68.65,-153.32 153.31,-153.32l1269.05 0c84.67,0 153.32,-68.65 153.32,-153.32z"/>
  </g>
 </g>
</svg>
