<?xml version="1.0" encoding="UTF-8"?>
<!DOCTYPE svg PUBLIC "-//W3C//DTD SVG 1.1//EN" "http://www.w3.org/Graphics/SVG/1.1/DTD/svg11.dtd">
<!-- Creator: CorelDRAW -->
<svg xmlns="http://www.w3.org/2000/svg" xml:space="preserve" width="68.3155mm" height="68.3155mm" version="1.1" style="shape-rendering:geometricPrecision; text-rendering:geometricPrecision; image-rendering:optimizeQuality; fill-rule:evenodd; clip-rule:evenodd"
viewBox="0 0 3627.58 3627.58"
 xmlns:xlink="http://www.w3.org/1999/xlink"
 xmlns:xodm="http://www.corel.com/coreldraw/odm/2003">
 <defs>
  <style type="text/css">
   <![CDATA[
    .fil0 {fill:url(#id0)}
   ]]>
  </style>
  <linearGradient id="id0" gradientUnits="userSpaceOnUse" x1="1841.64" y1="3657.94" x2="1813.79" y2="0">
   <stop offset="0" style="stop-opacity:1; stop-color:#FEFEFE"/>
   <stop offset="1" style="stop-opacity:1; stop-color:#FEFEFE"/>
  </linearGradient>
 </defs>
 <g id="Слой_x0020_1">
  <metadata id="CorelCorpID_0Corel-Layer"/>
  <path class="fil0" d="M1813.79 0c1001.72,0 1813.79,812.06 1813.79,1813.79 0,1001.72 -812.06,1813.79 -1813.79,1813.79 -1001.73,0 -1813.79,-812.06 -1813.79,-1813.79 0,-1001.73 812.06,-1813.79 1813.79,-1813.79zm0 261.34c857.39,0 1552.44,695.05 1552.44,1552.45 0,857.39 -695.05,1552.44 -1552.44,1552.44 -857.4,0 -1552.45,-695.05 -1552.45,-1552.44 0,-857.4 695.05,-1552.45 1552.45,-1552.45zm-226.86 1169.8c0,-30.35 24.6,-54.94 54.94,-54.94 30.35,0 54.96,24.6 54.96,54.94 0,30.35 -24.61,54.96 -54.96,54.96 -30.35,0 -54.94,-24.61 -54.94,-54.96zm-222.96 212.73c0,-30.35 24.6,-54.96 54.94,-54.96 30.35,0 54.96,24.61 54.96,54.96 0,30.35 -24.62,54.94 -54.96,54.94 -30.35,0 -54.94,-24.6 -54.94,-54.94zm222.96 219.39c0,-30.35 24.6,-54.96 54.94,-54.96 30.35,0 54.96,24.61 54.96,54.96 0,30.35 -24.61,54.96 -54.96,54.96 -30.35,0 -54.94,-24.62 -54.94,-54.96zm-539.69 32.99l453.68 0c15.7,0 30.46,8.32 37.88,22.16 19.69,36.77 58.43,61.8 103.07,61.8 72.29,0 129.25,-65.56 114.66,-140.46 -8.95,-45.99 -46.27,-82.85 -92.33,-91.38 -53.35,-9.88 -101.72,16.52 -124.85,58.72 -7.75,14.12 -22.31,23.17 -38.44,23.17l-453.66 0 0 -153.42 230.73 0c15.72,0 30.46,8.32 37.88,22.16 19.69,36.77 58.45,61.8 103.07,61.8 72.29,0 129.26,-65.56 114.66,-140.48 -8.96,-45.97 -46.27,-82.85 -92.31,-91.36 -53.35,-9.87 -101.72,16.5 -124.87,58.71 -7.74,14.15 -22.31,23.17 -38.44,23.17l-230.71 0 0 -146.71 453.68 0c15.7,0 30.46,8.32 37.88,22.16 19.69,36.77 58.43,61.8 103.07,61.8 72.29,0 129.25,-65.58 114.66,-140.48 -8.95,-45.98 -46.27,-82.85 -92.33,-91.38 -53.35,-9.87 -101.72,16.52 -124.85,58.72 -7.75,14.15 -22.31,23.17 -38.44,23.17l-453.66 0 0 -211.88 1533.08 0 0 921.87 -1533.08 0 0 -211.89zm1713.45 310.83l0 -1119.76c0,-44.96 -36.45,-81.41 -81.41,-81.41l-1730.99 0c-44.96,0 -81.41,36.45 -81.41,81.41l0 1119.76c0,44.96 36.45,81.41 81.41,81.41l673.85 0c44.96,0 81.41,36.45 81.41,81.41 0,44.95 -36.45,81.41 -81.41,81.41l-164.08 0c-94.07,0 -170.34,76.26 -170.34,170.36l1052.12 0c0,-94.09 -76.26,-170.36 -170.36,-170.36l-164.08 0c-44.95,0 -81.41,-36.45 -81.41,-81.41 0,-44.96 36.45,-81.41 81.41,-81.41l673.87 0c44.96,0 81.41,-36.45 81.41,-81.41z"/>
 </g>
</svg>
