<?xml version="1.0" encoding="UTF-8"?>
<!DOCTYPE svg PUBLIC "-//W3C//DTD SVG 1.1//EN" "http://www.w3.org/Graphics/SVG/1.1/DTD/svg11.dtd">
<!-- Creator: CorelDRAW -->
<svg xmlns="http://www.w3.org/2000/svg" xml:space="preserve" width="4.5374mm" height="2.5888mm" version="1.1" style="shape-rendering:geometricPrecision; text-rendering:geometricPrecision; image-rendering:optimizeQuality; fill-rule:evenodd; clip-rule:evenodd"
viewBox="0 0 21.15 12.07"
 xmlns:xlink="http://www.w3.org/1999/xlink"
 xmlns:xodm="http://www.corel.com/coreldraw/odm/2003">
 <defs>
  <style type="text/css">
   <![CDATA[
    .fil0 {fill:#FEFEFE;fill-rule:nonzero}
   ]]>
  </style>
 </defs>
 <g id="Слой_x0020_1">
  <metadata id="CorelCorpID_0Corel-Layer"/>
  <path class="fil0" d="M21.12 0.87c0,0 -0.15,-0.44 -1.11,-0.32l-3.17 0.02c-0.24,-0.03 -0.42,0.07 -0.42,0.07 0,0 -0.19,0.1 -0.28,0.34 -0.52,1.33 -1.18,2.48 -1.18,2.48 -1.41,2.4 -1.98,2.53 -2.21,2.38 -0.54,-0.34 -0.4,-1.39 -0.4,-2.14 0,-2.33 0.35,-3.3 -0.69,-3.56 -0.34,-0.08 -0.59,-0.13 -1.49,-0.14 -1.13,-0.01 -2.09,0 -2.63,0.26 -0.36,0.18 -0.64,0.57 -0.47,0.59 0.21,0.03 0.68,0.13 0.94,0.47 0,0 0.28,0.45 0.32,1.44 0.12,2.74 -0.44,3.08 -0.44,3.08 -0.43,0.23 -1.18,-0.15 -2.28,-2.42 0,0 -0.64,-1.12 -1.13,-2.36 -0.09,-0.23 -0.26,-0.35 -0.26,-0.35 0,0 -0.2,-0.15 -0.48,-0.2l-3.02 0.02c-0.46,0 -0.63,0.21 -0.63,0.21 0,0 -0.17,0.18 -0.01,0.54 2.36,5.54 5.04,8.31 5.04,8.31 0,0 2.46,2.57 5.24,2.39l1.27 0c0.39,-0.03 0.58,-0.24 0.58,-0.24 0,0 0.18,-0.2 0.17,-0.56 -0.02,-1.7 0.77,-1.95 0.77,-1.95 0.77,-0.24 1.76,1.64 2.82,2.37 0,0 0.8,0.55 1.41,0.43l2.82 -0.04c1.49,-0.01 0.78,-1.24 0.78,-1.24 -0.06,-0.1 -0.41,-0.86 -2.1,-2.43 -1.76,-1.64 -1.53,-1.38 0.61,-4.22 1.3,-1.73 1.82,-2.79 1.65,-3.24z"/>
 </g>
</svg>
